<?xml version="1.0" encoding="UTF-8" standalone="no"?>
<svg
   xmlns:dc="http://purl.org/dc/elements/1.1/"
   xmlns:cc="http://creativecommons.org/ns#"
   xmlns:rdf="http://www.w3.org/1999/02/22-rdf-syntax-ns#"
   xmlns:svg="http://www.w3.org/2000/svg"
   xmlns="http://www.w3.org/2000/svg"
   xmlns:sodipodi="http://sodipodi.sourceforge.net/DTD/sodipodi-0.dtd"
   xmlns:inkscape="http://www.inkscape.org/namespaces/inkscape"
   height="16px"
   id="Layer_1"
   style="enable-background:new 0 0 16 16;"
   version="1.1"
   viewBox="0 0 16 16"
   width="16px"
   xml:space="preserve"
   sodipodi:docname="logoVero.svg"
   inkscape:version="0.92.2 (5c3e80d, 2017-08-06)"
   inkscape:export-filename="C:\Users\chtor\Desktop\bitmap.png"
   inkscape:export-xdpi="3072.0002"
   inkscape:export-ydpi="3072.0002"><metadata
     id="metadata3715"><rdf:RDF><cc:Work
         rdf:about=""><dc:format>image/svg+xml</dc:format><dc:type
           rdf:resource="http://purl.org/dc/dcmitype/StillImage" /><dc:title></dc:title></cc:Work></rdf:RDF></metadata><defs
     id="defs3713"><filter
       inkscape:label="Invert"
       inkscape:menu="Color"
       inkscape:menu-tooltip="Oversaturate colors which can be fluorescent in real world"
       style="color-interpolation-filters:sRGB;"
       id="filter4234"><feColorMatrix
         type="hueRotate"
         values="0"
         id="feColorMatrix4228" /><feColorMatrix
         type="saturate"
         values="1"
         id="feColorMatrix4230" /><feColorMatrix
         type="matrix"
         values="2 -1 0 0 0 0 2 -1 0 0 -1 0 2 0 0 0 0 0 1 0 "
         id="feColorMatrix4232"
         result="fbSourceGraphic" /><feColorMatrix
         result="fbSourceGraphicAlpha"
         in="fbSourceGraphic"
         values="0 0 0 -1 0 0 0 0 -1 0 0 0 0 -1 0 0 0 0 1 0"
         id="feColorMatrix4338" /><feComponentTransfer
         id="feComponentTransfer4340"
         in="blur"
         result="fbSourceGraphic"><feFuncR
           id="feFuncR4342"
           type="gamma"
           amplitude="15.68"
           exponent="1.69399"
           offset="-0.57" /><feFuncG
           id="feFuncG4344"
           type="gamma"
           amplitude="15.68"
           exponent="1.69399"
           offset="-0.57" /><feFuncB
           id="feFuncB4346"
           type="gamma"
           amplitude="15.68"
           exponent="1.69399"
           offset="-0.57" /></feComponentTransfer><feColorMatrix
         result="fbSourceGraphicAlpha"
         in="fbSourceGraphic"
         values="0 0 0 -1 0 0 0 0 -1 0 0 0 0 -1 0 0 0 0 1 0"
         id="feColorMatrix4688" /><feColorMatrix
         id="feColorMatrix4690"
         values="1 0 0 0 0 0 1 0 0 0 0 0 1 0 0 0.21 0.72 0.07 0.464481 0 "
         result="color2"
         in="fbSourceGraphic" /></filter></defs><sodipodi:namedview
     pagecolor="#ffffff"
     bordercolor="#666666"
     borderopacity="1"
     objecttolerance="10"
     gridtolerance="10"
     guidetolerance="10"
     inkscape:pageopacity="0"
     inkscape:pageshadow="2"
     inkscape:window-width="2560"
     inkscape:window-height="1371"
     id="namedview3711"
     showgrid="false"
     inkscape:zoom="45.254834"
     inkscape:cx="-0.93089234"
     inkscape:cy="6.1263663"
     inkscape:window-x="0"
     inkscape:window-y="33"
     inkscape:window-maximized="1"
     inkscape:current-layer="Layer_1"
     inkscape:measure-start="0,0"
     inkscape:measure-end="0,0" /><path
     style="fill:#ff3247;fill-opacity:1;stroke-width:0.98016375"
     d="m 8.022441,0.22421231 c -0.467539,0 -0.712579,0.2908024 -0.980165,0.5436839 L 0.72098602,7.085359 c -0.305811,0.318555 -0.539857,0.550853 -0.539857,0.980162 0,0.551836 0.423431,0.980166 0.98016498,0.980166 h 0.980164 v 5.880982 c 0,0.539089 0.441075,0.980162 0.980163,0.980162 h 0.915076 7.364629 1.521935 c 0.539088,0 0.980163,-0.441073 0.980163,-0.980162 V 9.045687 h 0.980164 c 0.556732,0 0.980163,-0.42833 0.980163,-0.980166 0,-0.429309 -0.234044,-0.661607 -0.539855,-0.980162 L 13.903424,5.664887 V 2.184538 c 0,-0.539089 -0.441075,-0.980163 -0.980163,-0.980163 h -0.980165 c -0.53909,0 -0.980163,0.441074 -0.980163,0.980163 V 2.726311 L 9.002604,0.76789621 C 8.735019,0.51501471 8.489979,0.22421231 8.022441,0.22421231 Z m 0,0.6374877 c 0.203091,0 0.238058,0.08245 0.541771,0.36947599 l 1.948841,1.946928 A 0.63781393,0.63781393 0 0 0 11.600421,2.726311 V 2.184538 c 0,-0.191225 0.151448,-0.342673 0.342675,-0.342673 h 0.980165 c 0.191225,0 0.342674,0.151448 0.342674,0.342673 v 3.480349 a 0.63781393,0.63781393 0 0 0 0.185693,0.451793 l 1.412817,1.410903 c 0.155559,0.162042 0.260033,0.277846 0.306301,0.350332 0.04626,0.07248 0.05552,0.08885 0.05552,0.187606 0,0.225596 -0.113052,0.342677 -0.342675,0.342677 h -0.980164 a 0.63781393,0.63781393 0 0 0 -0.637489,0.637489 v 5.880982 c 0,0.191229 -0.151449,0.342677 -0.342674,0.342677 H 11.401329 4.0367 3.121624 c -0.191225,0 -0.342675,-0.151448 -0.342675,-0.342677 V 9.045687 A 0.63781393,0.63781393 0 0 0 2.141461,8.408198 H 1.161297 c -0.22962498,0 -0.34267398,-0.117081 -0.34267398,-0.342677 0,-0.09876 0.0092,-0.115124 0.05552,-0.187606 C 0.91906302,7.807535 1.022669,7.691869 1.170873,7.537152 L 7.48067,1.231176 C 7.78438,0.944154 7.819349,0.86170001 8.022441,0.86170001 Z"
     id="path3708"
     inkscape:connector-curvature="0" /><g
     transform="matrix(0.01176033,0,0,0.01176033,2.727569,3.782965)"
     id="g4001"><path
       style="stroke-width:0.01225533"
       d="m 5.4492188,6.2792969 c -0.4161543,6.127e-4 -0.7899273,0.015864 -1.1621094,0.060547 -0.3052313,0.036619 -0.6111888,0.077754 -0.9160156,0.1191406 -0.06477,0.00891 -0.127985,0.028169 -0.1914063,0.044922 -0.033935,0.0089 -0.055501,0.030588 -0.056641,0.068359 -0.00589,0.1800308 -0.013031,0.3607643 -0.017578,0.5410156 -6.128e-4,0.027109 0.00562,0.052969 0.00977,0.080078 0.00341,0.022856 0.017125,0.039208 0.039063,0.048828 0.023273,0.010147 0.045707,0.020879 0.066406,0.035156 0.1000648,0.069733 0.1491163,0.1755935 0.1875,0.2851562 0.027317,0.078336 0.045712,0.158401 0.068359,0.2382812 0.014069,0.049781 0.031694,0.1001071 0.042969,0.1503907 0.05287,0.2350572 0.1021428,0.4704008 0.15625,0.7050781 0.051632,0.2239171 0.1194755,0.4435651 0.2265626,0.6484375 0.119612,0.2288683 0.2892439,0.4031429 0.53125,0.5039063 0.1465124,0.061044 0.2988349,0.1001584 0.4550781,0.125 0.2799852,0.044278 0.5632423,0.049788 0.8457031,0.029297 C 6.0203654,9.9422036 6.3010397,9.8995954 6.5761719,9.8164062 6.7804192,9.7545291 6.9747813,9.6668217 7.1386719,9.5273438 7.3888644,9.3139907 7.5894538,9.0620215 7.7441406,8.7714844 7.8987294,8.4813517 8.0081982,8.1721433 8.1054688,7.859375 8.1335089,7.7695679 8.1589051,7.6799617 8.1914062,7.5917969 8.2394104,7.4619394 8.3321689,7.3806993 8.4707031,7.359375 c 0.044082,-0.00684 0.090046,-0.00845 0.1347657,-0.00586 0.1039251,0.0061 0.2041213,0.02843 0.2734374,0.1152344 0.030222,0.037771 0.058676,0.078866 0.078125,0.1230469 0.037881,0.085996 0.073424,0.1742692 0.1015626,0.2636719 0.1220998,0.3866066 0.2834334,0.7536014 0.4882812,1.1035156 0.1698834,0.2907699 0.394239,0.5274376 0.691406,0.6894531 0.210044,0.1146364 0.435882,0.1868933 0.669922,0.2324219 0.35201,0.068287 0.707051,0.084071 1.064453,0.068359 0.216049,-0.00933 0.428954,-0.035595 0.636719,-0.097656 0.213169,-0.063948 0.400913,-0.1677312 0.541016,-0.3457031 0.09064,-0.1148447 0.157619,-0.2441957 0.21289,-0.3789063 0.116512,-0.2839192 0.19208,-0.5785358 0.259766,-0.8769531 0.03311,-0.1459365 0.06791,-0.292017 0.103515,-0.4375 0.01864,-0.076057 0.04142,-0.1512535 0.0625,-0.2265625 0.01966,-0.070566 0.0354,-0.1420812 0.08008,-0.203125 0.0449,-0.061362 0.09111,-0.1218434 0.166015,-0.1484375 0.0327,-0.011692 0.04961,-0.03341 0.05664,-0.064453 0.0054,-0.024008 0.01172,-0.0501 0.01172,-0.074219 2.08e-4,-0.1077121 -8.06e-4,-0.2147496 -0.0039,-0.3222656 -0.0024,-0.077368 -0.0089,-0.1531866 -0.01367,-0.2304687 -0.0023,-0.034879 -0.02095,-0.057717 -0.05469,-0.066406 -0.02379,-0.0061 -0.0463,-0.011899 -0.07031,-0.015625 C 13.618263,6.407112 13.275897,6.3540736 12.929697,6.3300776 12.653204,6.3108486 12.374771,6.2975946 12.097665,6.2851556 11.564362,6.2612696 11.032361,6.2727816 10.501962,6.3398436 10.177898,6.3808256 9.858528,6.4403381 9.546875,6.5410156 9.389394,6.5919243 9.2338735,6.6510966 9.0761719,6.7011719 8.8301094,6.779079 8.5776299,6.8135188 8.3222656,6.765625 8.1687309,6.7367637 8.0160775,6.6927315 7.8671875,6.6445312 7.5977663,6.5574081 7.3302641,6.4732861 7.0507812,6.421875 6.5073554,6.3215284 5.959739,6.2738065 5.4492188,6.2792969 Z m -1.8828126,0.5 c 0.1163031,0 0.2109375,0.023971 0.2109376,0.052734 0,0.028543 -0.094635,0.050781 -0.2109376,0.050781 -0.1164991,0 -0.2109375,-0.022226 -0.2109374,-0.050781 0,-0.028788 0.094438,-0.052734 0.2109374,-0.052734 z m 10.0703128,0 c 0.116278,0 0.210937,0.023971 0.210937,0.052734 1.3e-5,0.028543 -0.09465,0.050781 -0.210937,0.050781 -0.116291,0 -0.210938,-0.022226 -0.210938,-0.050781 0,-0.028788 0.09465,-0.052734 0.210938,-0.052734 z m -2.88086,2.7988281 c 0.115785,0.029621 0.250626,0.053343 0.40625,0.076172 C 11.039087,9.637348 10.917007,9.619716 10.794922,9.59375 10.780522,9.59069 10.769992,9.5816 10.755862,9.578125 Z m 0.904297,0.1152344 c 0.05074,4.731e-4 0.0792,0.00245 0.128906,0.00195 -0.01381,2.263e-4 -0.02719,0.00379 -0.04101,0.00391 -0.02945,2.646e-4 -0.05852,-0.00542 -0.08789,-0.00586 z"
       transform="matrix(81.59715,0,0,81.59715,-253.41909,-214.23531)"
       id="path3999"
       inkscape:connector-curvature="0" /></g><path
     style="fill:#000000;stroke-width:0.01452676"
     d="m 6.440457,13.5637 c -0.36589,-0.02736 -0.432409,-0.04717 -0.507822,-0.151283 -0.09783,-0.13505 -0.08326,-0.314518 0.03477,-0.428147 0.09367,-0.09018 0.146476,-0.09977 0.431579,-0.07833 0.310692,0.02337 1.088345,0.01074 1.312567,-0.02137 0.467048,-0.06674 0.810454,-0.16238 1.09677,-0.305487 0.124616,-0.06223 0.286735,-0.179223 0.370936,-0.26757 0.07488,-0.07859 0.155484,-0.237467 0.174937,-0.314499 0.01958,-0.07756 0.104313,-0.179527 0.180227,-0.214004 0.164099,-0.07452 0.389238,0.01136 0.464158,0.183639 0.07651,0.175958 -0.115321,0.579959 -0.385922,0.837005 -0.43824,0.416284 -1.07947,0.654736 -2.010056,0.747465 -0.20509,0.02041 -0.94931,0.02847 -1.162141,0.01255 z"
     id="path4143"
     inkscape:connector-curvature="0"
     sodipodi:nodetypes="ccccccccsccscc" /><path
     style="stroke-width:0.00390625"
     d=""
     id="path4692"
     inkscape:connector-curvature="0" /><path
     style="stroke-width:0.00390625"
     d=""
     id="path4694"
     inkscape:connector-curvature="0" /><path
     style="stroke-width:0.00390625"
     d="M 4.8014629,10.830238 C 4.4579223,10.809844 4.2267591,10.765512 4.0177812,10.679946 3.7052957,10.551999 3.5106027,10.314646 3.3638733,9.8827579 3.3176365,9.7466633 3.2878441,9.6272067 3.197916,9.2173319 3.1288173,8.9023932 3.1207332,8.8676475 3.1017447,8.8039861 3.0922499,8.7721537 3.0738533,8.707213 3.0608632,8.6596735 3.0127979,8.4837701 2.9791425,8.4021881 2.9246621,8.3295162 2.887351,8.2797466 2.8507727,8.2488772 2.7978239,8.222474 2.7615106,8.2043662 2.7465348,8.191711 2.7412842,8.1746954 2.7311694,8.1419163 2.7282101,8.1017741 2.7306049,8.0298319 c 0.00136,-0.04082 0.00514,-0.1594726 0.00841,-0.2636718 0.00327,-0.1041993 0.00777,-0.1985928 0.010016,-0.2097635 0.00738,-0.036765 0.020171,-0.043496 0.1394544,-0.073404 0.061031,-0.015302 0.069553,-0.016609 0.3680576,-0.056434 0.7238006,-0.096567 0.927282,-0.1164199 1.3222657,-0.1290106 0.619806,-0.019757 1.0772581,0.00162 1.5890311,0.074244 0.416046,0.059043 0.6190798,0.1069172 1.0867501,0.2562504 0.3807199,0.1215688 0.5436395,0.1540741 0.7454242,0.1487253 0.1210887,-0.00321 0.2031977,-0.014914 0.3405133,-0.04854 0.069448,-0.017006 0.1211508,-0.033819 0.4960938,-0.161323 0.2696465,-0.091696 0.5321961,-0.1529826 0.8515625,-0.1987778 0.2779996,-0.039863 0.4896744,-0.059407 0.8164064,-0.075376 0.132507,-0.00648 0.624063,-0.00648 0.767578,-8.7e-6 0.946433,0.042689 1.128838,0.058427 1.710938,0.1476207 0.232447,0.035617 0.255952,0.041854 0.271571,0.072058 0.008,0.015515 0.01643,0.1298129 0.0214,0.2908476 0.006,0.1936716 0.0051,0.2750748 -0.0035,0.3167277 -0.01203,0.058279 -0.01678,0.064047 -0.07681,0.093252 -0.04489,0.021836 -0.0819,0.055133 -0.125225,0.1126452 -0.03078,0.040867 -0.04364,0.063552 -0.0587,0.1035551 -0.0084,0.022267 -0.04951,0.1642006 -0.07947,0.2742111 -0.01357,0.049851 -0.06748,0.2744466 -0.105485,0.4394531 -0.116704,0.506753 -0.204718,0.7845285 -0.322457,1.0176873 -0.08878,0.175813 -0.18405,0.294359 -0.312846,0.389279 -0.184456,0.135941 -0.463647,0.220607 -0.827598,0.250973 -0.156514,0.01306 -0.514767,0.01542 -0.664063,0.0044 C 10.214536,10.769552 9.8512956,10.676312 9.55986,10.512804 9.2975657,10.36564 9.0854719,10.153717 8.9175766,9.8710431 8.7302368,9.5556315 8.5854129,9.2331879 8.4541715,8.8392924 8.3715899,8.5914392 8.324936,8.490983 8.2584942,8.4179545 8.2076371,8.3620559 8.1374387,8.3312606 8.0374946,8.3210044 7.8719481,8.3040161 7.7459899,8.3436155 7.6684414,8.4370292 7.6255957,8.4886407 7.6044082,8.5427045 7.5181625,8.8204913 7.3668102,9.3079798 7.2181282,9.644501 7.0347641,9.9145976 6.9124028,10.094836 6.7693789,10.255249 6.6061504,10.39532 c -0.1705165,0.146326 -0.3692022,0.241607 -0.6629822,0.317939 -0.2160882,0.05615 -0.4347416,0.0897 -0.7276428,0.111659 -0.053626,0.004 -0.3679292,0.0081 -0.4140625,0.0053 z m 6.2304691,-0.263426 c -0.03736,-0.0038 -0.09844,-0.0037 -0.08008,1.29e-4 0.0075,0.0016 0.03476,0.0028 0.06055,0.0028 0.04211,-9.1e-5 0.04409,-3.86e-4 0.01953,-0.0029 z m -0.585938,-0.04116 c -0.0021,-8.84e-4 -0.05576,-0.01028 -0.11914,-0.02089 -0.06338,-0.01061 -0.14336,-0.02557 -0.177735,-0.03326 -0.03438,-0.0077 -0.06689,-0.01494 -0.07226,-0.01612 -0.0072,-0.0016 -0.006,-2.8e-5 0.0049,0.006 0.01645,0.0091 0.07054,0.02075 0.180612,0.03886 0.130573,0.02149 0.196106,0.03056 0.183594,0.02541 z M 3.2209907,7.8676728 c 0.077771,-0.00531 0.1340311,-0.019226 0.1485757,-0.036751 0.00851,-0.010258 0.00172,-0.024792 -0.015748,-0.033705 -0.096274,-0.049115 -0.3863402,-0.033081 -0.3863402,0.021356 0,0.023961 0.054515,0.042647 0.1425782,0.048871 0.023633,0.00167 0.045605,0.00327 0.048828,0.00355 0.00322,2.84e-4 0.03117,-0.00121 0.062106,-0.00332 z m 9.6634763,3.94e-5 c 0.202497,-0.013827 0.204915,-0.081266 0.0035,-0.097994 -0.08385,-0.00696 -0.185858,0.00339 -0.231277,0.023484 -0.02053,0.00908 -0.0314,0.0238 -0.0256,0.034648 0.0093,0.017313 0.07148,0.034538 0.143012,0.039593 0.02363,0.00167 0.04561,0.00327 0.04883,0.00355 0.0032,2.84e-4 0.03091,-0.00119 0.06152,-0.00328 z"
     id="path4696"
     inkscape:connector-curvature="0" /><path
     style="stroke-width:0.00390625"
     d="M 4.7936504,10.829932 C 4.3689955,10.808969 4.0261655,10.719148 3.8209942,10.575098 3.7516644,10.526422 3.662343,10.441388 3.6113686,10.375535 3.4794058,10.205054 3.3731749,9.9595134 3.2939331,9.6418191 3.2738707,9.5613855 3.2492268,9.4522401 3.1764793,9.1216288 3.1460333,8.9832628 3.1129527,8.8441255 3.0984659,8.7935038 3.0846321,8.745164 3.0635679,8.6708813 3.0516566,8.6284312 2.9838887,8.3869173 2.9205329,8.2869173 2.7927855,8.219833 2.7463565,8.195452 2.7407025,8.18747 2.7329075,8.135301 c -0.00491,-0.032873 -0.00476,-0.04232 0.00618,-0.375 0.00692,-0.2105505 0.00716,-0.2132563 0.020154,-0.2286963 0.013767,-0.016361 0.024511,-0.02117 0.081969,-0.036693 0.088464,-0.023898 0.1158878,-0.028493 0.3840763,-0.064346 0.7444221,-0.099518 0.9490281,-0.1198288 1.3398438,-0.133001 0.6981806,-0.023532 1.2339326,0.00851 1.8320312,0.109569 0.2791352,0.047165 0.4492813,0.090892 0.8574219,0.2203567 0.2221188,0.070457 0.3373539,0.1021258 0.4533094,0.1245764 0.2284996,0.044241 0.4520719,0.030586 0.7032109,-0.04295 0.027781,-0.00813 0.1041243,-0.033063 0.1696516,-0.055397 0.065527,-0.022334 0.171875,-0.05857 0.2363281,-0.080524 0.064453,-0.021954 0.1482614,-0.049094 0.1862403,-0.06031 0.5599254,-0.1653604 1.349205,-0.2469578 2.159463,-0.22325 0.290077,0.00849 0.851348,0.038031 1.078125,0.05675 0.207602,0.017136 0.455053,0.048776 0.791016,0.1011445 0.180389,0.028118 0.20517,0.035237 0.221802,0.063715 0.0091,0.015595 0.01646,0.1095046 0.02224,0.2842106 0.0059,0.1790607 0.0052,0.2855532 -0.0022,0.3214538 -0.0119,0.057644 -0.02023,0.069055 -0.06605,0.090507 -0.05761,0.026974 -0.09618,0.06202 -0.14846,0.134914 -0.03468,0.048359 -0.04756,0.081417 -0.09042,0.2322141 -0.041,0.1442189 -0.07277,0.2714982 -0.138034,0.5529422 -0.09713,0.4188614 -0.160522,0.6393781 -0.244644,0.8510379 -0.181033,0.4555031 -0.397231,0.6543851 -0.826638,0.7604321 -0.206342,0.05096 -0.377819,0.06899 -0.692426,0.07283 -0.20073,0.0024 -0.318849,-0.0013 -0.466797,-0.01467 C 9.9717614,10.740188 9.5396098,10.571149 9.2180172,10.256441 9.0568016,10.098676 8.9500684,9.9460848 8.7942504,9.6506024 8.6641344,9.403859 8.5604063,9.1571173 8.4558957,8.8457459 8.3643188,8.5729075 8.3203918,8.480968 8.246793,8.4080942 8.1916438,8.3534882 8.1291407,8.3292762 8.0195606,8.3200705 7.8924563,8.3093926 7.7900332,8.3338222 7.7146661,8.3927929 7.6457938,8.4466819 7.6184524,8.500422 7.553468,8.7096344 7.4292227,9.1096311 7.346686,9.3321724 7.23907,9.5573371 7.0809739,9.8881213 6.8755465,10.161596 6.6139623,10.389512 6.4835844,10.503109 6.3290556,10.589438 6.139635,10.6545 c -0.2815949,0.09672 -0.6207097,0.155859 -0.9983283,0.174093 -0.073317,0.0035 -0.2864341,0.0044 -0.3476563,0.0013 z m 6.2516276,-0.260576 c -8.95e-4,-8.21e-4 -0.02272,-0.0025 -0.0485,-0.0037 -0.02802,-0.0013 -0.04295,-9.04e-4 -0.03711,0.0011 0.0094,0.0032 0.08893,0.0057 0.08561,0.0026 z m -0.713626,-0.06298 c -0.08994,-0.01538 -0.177628,-0.0327 -0.236259,-0.04667 -0.03049,-0.0073 -0.0245,-2.34e-4 0.008,0.0094 0.04004,0.01189 0.286313,0.05419 0.315231,0.05414 0.0064,-1.2e-5 -0.0327,-0.0076 -0.087,-0.0169 z M 3.262841,7.863531 C 3.345205,7.853731 3.3877696,7.831388 3.3675124,7.808578 3.3225844,7.757987 3.048772,7.753659 2.978002,7.802418 2.963212,7.812608 2.964933,7.827337 2.982272,7.838983 3.02068,7.864778 3.1541583,7.876456 3.2628407,7.863529 Z m 9.645002,0.00199 c 0.06398,-0.00466 0.122495,-0.02344 0.128107,-0.041122 0.0022,-0.00707 3e-4,-0.011222 -0.0092,-0.019726 C 12.9815,7.764238 12.766463,7.755206 12.6675,7.789584 c -0.02717,0.00944 -0.04187,0.024096 -0.03571,0.035609 0.0068,0.012632 0.02645,0.02219 0.06374,0.030945 0.05649,0.013263 0.120284,0.016082 0.212326,0.00938 z"
     id="path4698"
     inkscape:connector-curvature="0" /><path
     style="stroke-width:0.00390625"
     d=""
     id="path4700"
     inkscape:connector-curvature="0" /><path
     style="stroke-width:0.00390625"
     d="M 4.7936504,10.830205 C 4.5647348,10.816236 4.4129929,10.795468 4.2545879,10.756426 4.0528924,10.706714 3.8945235,10.635411 3.7741192,10.540103 3.7322781,10.506983 3.6576944,10.432711 3.6225895,10.389207 3.5181614,10.259793 3.4296317,10.083903 3.3566379,9.8608153 3.3110126,9.7213728 3.2855232,9.6181035 3.1944352,9.2036601 3.1228615,8.8780052 3.1022044,8.7961387 3.0355167,8.5738463 2.9765432,8.377268 2.9074765,8.2774677 2.7892985,8.218065 2.7353139,8.1909294 2.7308723,8.1771463 2.7317866,8.0395976 c 6.835e-4,-0.1028389 0.011562,-0.4417521 0.015267,-0.4756263 0.00271,-0.024777 0.015486,-0.041814 0.039235,-0.052319 0.042876,-0.018966 0.1556094,-0.042513 0.2964243,-0.061914 0.3441778,-0.047421 0.7804218,-0.1023752 0.9277344,-0.1168688 0.2611543,-0.025694 0.5086996,-0.037499 0.8769531,-0.041821 0.4798894,-0.00563 0.8930859,0.022132 1.350994,0.090778 0.3706925,0.055571 0.5588841,0.1005401 0.9790841,0.233955 C 7.5228,7.7127225 7.6658524,7.7497 7.8092754,7.7687566 c 0.076899,0.010218 0.2486981,0.00923 0.3303598,-0.0019 C 8.3032758,7.7445518 8.3817594,7.7225799 8.7448223,7.5974292 8.9807746,7.5160946 9.1428688,7.469976 9.3307598,7.4307197 9.9197797,7.3076552 10.613854,7.2625551 11.381541,7.2974625 c 0.833677,0.037908 1.049088,0.0572 1.617188,0.1448297 0.220359,0.033991 0.240076,0.039441 0.256318,0.070848 0.01578,0.030522 0.03317,0.5168637 0.02112,0.5904993 -0.0061,0.037128 -0.01506,0.06348 -0.02609,0.076587 -0.006,0.00711 -0.02522,0.019386 -0.04587,0.029274 -0.05481,0.026246 -0.09586,0.063817 -0.144886,0.1325761 -0.03652,0.05123 -0.04909,0.08467 -0.09982,0.2657197 -0.03571,0.1274328 -0.06216,0.2342877 -0.127194,0.5138319 -0.08037,0.3454768 -0.119454,0.491547 -0.180815,0.6757813 -0.209069,0.6277125 -0.442689,0.8542755 -0.994565,0.9645235 -0.170374,0.03404 -0.318378,0.04655 -0.589844,0.04986 -0.20073,0.0024 -0.318849,-0.0013 -0.466797,-0.01467 C 9.8609504,10.73015 9.3873004,10.506842 9.0473832,10.064988 8.9303606,9.9128721 8.7730512,9.6304387 8.6492305,9.3501444 8.577434,9.1876181 8.5238805,9.0480138 8.4559266,8.8462382 8.3639563,8.5731504 8.3203418,8.4818357 8.2469379,8.4086828 8.1877828,8.3497294 8.1178469,8.3249002 7.9928692,8.3184813 7.8395184,8.3106051 7.7192743,8.3607688 7.6513996,8.4609366 7.6203102,8.5068175 7.6011961,8.5565789 7.5432368,8.7425244 7.4249157,9.1221252 7.3441575,9.3380701 7.236718,9.5621464 7.0793559,9.8903417 6.8744903,10.162517 6.6139623,10.389512 c -0.1767902,0.154035 -0.3875601,0.25336 -0.7070306,0.333186 -0.1996383,0.04988 -0.4138589,0.08173 -0.6875,0.102206 -0.053847,0.004 -0.3800693,0.0081 -0.4257813,0.0053 z m 6.2477216,-0.260769 c -8.95e-4,-7.77e-4 -0.02009,-0.0024 -0.04264,-0.0036 -0.02374,-0.0013 -0.03773,-7.73e-4 -0.0332,0.0011 0.0074,0.0031 0.0793,0.0054 0.07585,0.0024 z m -0.625733,-0.04782 c -0.0013,-0.0013 -0.0047,-0.0014 -0.0075,-3.09e-4 -0.0031,0.0012 -0.0022,0.0022 0.0024,0.0024 0.0041,1.7e-4 0.0064,-7.53e-4 0.0051,-0.0021 z m -0.107498,-0.01909 c -0.05219,-0.0093 -0.124823,-0.02333 -0.161413,-0.03127 -0.06598,-0.01431 -0.08775,-0.01621 -0.05157,-0.0045 0.03376,0.01093 0.268249,0.05257 0.296152,0.05258 0.0064,3e-6 -0.03098,-0.0076 -0.08317,-0.01683 z M 3.2988733,7.8584045 c 0.037474,-0.0079 0.069393,-0.022596 0.072866,-0.033537 0.00824,-0.025973 -0.050961,-0.047428 -0.150443,-0.054519 -0.1228261,-0.00875 -0.2493116,0.014795 -0.2530568,0.047116 -0.00227,0.019609 0.027933,0.033869 0.094942,0.044824 0.042758,0.00699 0.1961237,0.00446 0.2356916,-0.00388 z m 9.6646987,-2.733e-4 c 0.0366,-0.00805 0.06907,-0.023304 0.07248,-0.034039 0.0096,-0.030131 -0.08047,-0.054673 -0.201382,-0.054895 -0.06976,-1.278e-4 -0.111538,0.00449 -0.154247,0.017062 -0.03338,0.00982 -0.04888,0.020166 -0.04888,0.032618 0,0.018381 0.02944,0.032019 0.09344,0.043279 0.04214,0.00741 0.198598,0.00478 0.23859,-0.00402 z"
     id="path4702"
     inkscape:connector-curvature="0" /><path
     style="stroke-width:0.00390625"
     d=""
     id="path4704"
     inkscape:connector-curvature="0" /><path
     style="stroke-width:0.00390625"
     d=""
     id="path4706"
     inkscape:connector-curvature="0" /><path
     style="stroke-width:0.00390625"
     d=""
     id="path4708"
     inkscape:connector-curvature="0" /><path
     style="stroke-width:0.00390625"
     d="M 4.7858379,10.829913 C 4.3475063,10.807913 4.0029471,10.712225 3.7917179,10.553836 3.7489458,10.521763 3.6691432,10.445592 3.6335634,10.402879 3.5268471,10.274766 3.4404287,10.108712 3.3655431,9.8878767 3.3162005,9.7423667 3.2954885,9.6602452 3.2038133,9.2466288 3.1659565,9.075828 3.1288071,8.9114726 3.1212591,8.8813944 3.0954527,8.7785578 3.0264388,8.5412758 3.0081645,8.4925551 2.9531319,8.3458343 2.8925992,8.2714578 2.7811083,8.2135715 2.7233173,8.1835663 2.7235629,8.1867629 2.7410398,7.6919413 c 0.00498,-0.1409811 0.00557,-0.1457479 0.019951,-0.1621316 0.014486,-0.016498 0.035516,-0.024504 0.1173414,-0.044666 0.073172,-0.01803 0.087426,-0.020233 0.4035994,-0.062361 0.6867193,-0.091502 0.8804888,-0.1104884 1.2851562,-0.1259286 0.1682049,-0.00642 0.6792336,-0.00654 0.8027344,-1.868e-4 0.3806118,0.01957 0.6701636,0.050473 1.017073,0.1085497 0.2858469,0.047854 0.4539149,0.090994 0.8813645,0.2262292 0.3955833,0.1251534 0.5671739,0.1565994 0.779297,0.1428151 0.1932976,-0.012561 0.2902394,-0.03694 0.6796875,-0.1709291 0.1852445,-0.063733 0.294723,-0.097672 0.4140625,-0.1283629 0.3425808,-0.088101 0.7686765,-0.1489543 1.2285153,-0.1754513 0.273138,-0.015739 0.674865,-0.017495 0.96875,-0.00424 0.855034,0.038579 1.079108,0.057948 1.609375,0.1391137 0.273419,0.041851 0.287327,0.045362 0.306003,0.077253 0.0056,0.00958 0.0084,0.028682 0.01265,0.087482 0.01327,0.1821996 0.01755,0.4648165 0.0078,0.5156942 -0.011,0.057484 -0.02072,0.070945 -0.06727,0.093162 -0.04154,0.019825 -0.08044,0.050638 -0.111505,0.088328 -0.06733,0.081689 -0.07533,0.099166 -0.124661,0.2721337 -0.03741,0.13118 -0.07719,0.2898757 -0.136216,0.543413 -0.104578,0.4491889 -0.160127,0.6427622 -0.248611,0.8663447 -0.06899,0.1743317 -0.142377,0.3080147 -0.226683,0.4129517 -0.113368,0.141109 -0.263758,0.240732 -0.466213,0.308836 -0.169381,0.05698 -0.343452,0.08835 -0.587891,0.105955 -0.09641,0.0069 -0.510822,0.007 -0.603515,1.2e-5 C 10.262913,10.773102 9.9386555,10.698431 9.6646379,10.56711 9.5792946,10.526212 9.5319145,10.499372 9.4538067,10.44768 9.2694024,10.325642 9.1083168,10.162862 8.976525,9.9653788 8.9063075,9.8601616 8.8227692,9.711268 8.7409231,9.5454569 8.6274762,9.3156263 8.5523309,9.1316144 8.4577746,8.8520976 8.3867063,8.6420136 8.342445,8.5353641 8.3012223,8.4748797 8.2310692,8.371947 8.1625149,8.3338287 8.0241192,8.3208021 7.8533586,8.3047292 7.7196614,8.3564459 7.6484348,8.4661243 7.6187157,8.5118871 7.6009067,8.5592464 7.5379782,8.7598581 7.4196618,9.1370442 7.3392813,9.3505607 7.2334078,9.5688944 7.087827,9.869113 6.9059153,10.119679 6.6824192,10.327828 c -0.1005005,0.0936 -0.1831368,0.156186 -0.2754875,0.208647 -0.2811383,0.159706 -0.7500548,0.268104 -1.2636719,0.292121 -0.075346,0.0035 -0.2971801,0.0043 -0.3574219,0.0013 z m 6.2373051,-0.261926 c -0.0091,-8.22e-4 -0.02407,-8.22e-4 -0.0332,0 -0.0091,8.23e-4 -0.0017,0.0015 0.0166,0.0015 0.01826,0 0.02573,-6.73e-4 0.0166,-0.0015 z m -0.65227,-0.05439 c -0.0026,-0.0011 -0.0079,-0.0011 -0.01172,-1.45e-4 -0.0038,9.9e-4 -0.0016,0.0019 0.0048,0.0019 0.0064,8e-5 0.0096,-7.3e-4 0.0069,-0.0018 z m -0.04988,-0.008 c -0.03221,-0.0059 -0.215043,-0.04225 -0.232422,-0.04621 l -0.0098,-0.0022 0.0098,0.0056 c 0.0054,0.0031 0.02321,0.0086 0.03964,0.01225 0.04742,0.01048 0.199425,0.03654 0.212318,0.0364 0.0064,-7.1e-5 -0.0023,-0.0027 -0.01953,-0.0059 z M 3.2995098,7.857926 c 0.033821,-0.00721 0.068426,-0.022622 0.072065,-0.032104 0.00756,-0.019689 -0.033449,-0.040112 -0.1013617,-0.050483 -0.057499,-0.00878 -0.1906008,-0.00532 -0.235942,0.00613 -0.052666,0.013304 -0.073009,0.028273 -0.063238,0.046532 0.00744,0.013901 0.052207,0.029165 0.1054517,0.035955 0.041017,0.00523 0.1889359,0.00123 0.223025,-0.00603 z m 9.6631902,3.52e-5 c 0.03465,-0.0076 0.05898,-0.017747 0.06877,-0.028695 0.0068,-0.00756 0.0069,-0.00896 0.0013,-0.0175 -0.01888,-0.028815 -0.101769,-0.043844 -0.223299,-0.040487 -0.08587,0.00237 -0.1195,0.00786 -0.154461,0.025227 -0.02368,0.011759 -0.0292,0.023222 -0.01744,0.036215 0.01036,0.01145 0.0557,0.024559 0.113142,0.032711 0.02861,0.00406 0.184466,-0.00143 0.212018,-0.00747 z"
     id="path4710"
     inkscape:connector-curvature="0" /><path
     style="stroke-width:0.00390625"
     d="M 4.7506817,10.828197 C 4.4070363,10.806224 4.1332451,10.743213 3.9280584,10.638878 3.8348003,10.591457 3.7621448,10.537121 3.6822155,10.455024 3.5496713,10.318885 3.4479487,10.135495 3.3607867,9.8755351 3.3165628,9.7436382 3.2938875,9.6527976 3.201851,9.2388163 3.1629232,9.0637187 3.1266505,8.9028788 3.1212451,8.8813944 3.102248,8.8058892 3.0303827,8.5566605 3.0142398,8.5103007 2.9951771,8.4555554 2.9633,8.3881085 2.939469,8.3520976 2.9029862,8.2969686 2.8459598,8.2475772 2.7771634,8.2115223 2.7578352,8.2013928 2.7513002,8.1954899 2.7452203,8.1826691 2.7314959,8.1537278 2.7280318,8.111816 2.7308125,8.0083476 c 0.00484,-0.1800385 0.013918,-0.431626 0.016182,-0.4484071 0.00303,-0.022459 0.020045,-0.041301 0.046098,-0.051048 0.045627,-0.017071 0.1504897,-0.039935 0.2437751,-0.053152 0.2472067,-0.035024 0.7788218,-0.1028748 0.9325646,-0.1190241 0.2698202,-0.028342 0.5336745,-0.041548 0.9121093,-0.045652 0.479354,-0.0052 0.8829593,0.020669 1.3183594,0.084492 0.3737694,0.054789 0.5799348,0.1023513 0.9579098,0.2209883 0.2356891,0.073977 0.2521457,0.079028 0.3213871,0.09864 0.177925,0.050396 0.2871016,0.071349 0.4127555,0.079213 0.1144019,0.00716 0.2530008,-0.00387 0.376748,-0.02998 C 8.3671223,7.7236507 8.4407654,7.7007487 8.7916978,7.581773 8.9711072,7.520948 9.0647716,7.493091 9.2018541,7.4597873 9.5364505,7.3784973 9.9652416,7.3205605 10.403026,7.2974894 c 0.322905,-0.017017 0.650004,-0.015821 1.074219,0.00393 0.749156,0.034874 0.954895,0.053813 1.509378,0.1389406 0.183496,0.028172 0.228566,0.037249 0.247158,0.049778 0.02341,0.015773 0.02684,0.026819 0.03268,0.105104 0.01396,0.1872165 0.01791,0.4672309 0.0074,0.5227687 -0.01033,0.054443 -0.02021,0.067746 -0.06807,0.091607 -0.05501,0.027423 -0.0873,0.055358 -0.132206,0.1143414 -0.04789,0.062916 -0.06048,0.094209 -0.111913,0.2781411 -0.03393,0.1213545 -0.06859,0.2609878 -0.12895,0.5195312 -0.08772,0.3757431 -0.138693,0.5619725 -0.203166,0.742322 -0.08437,0.2360086 -0.16901,0.4014696 -0.269682,0.5272096 -0.197232,0.246341 -0.522449,0.375536 -1.042755,0.414242 -0.08981,0.0067 -0.429147,0.0092 -0.539063,0.0041 -0.50333,-0.0237 -0.9172489,-0.125033 -1.2265931,-0.30031 C 9.4948774,10.477133 9.3883137,10.404466 9.3346661,10.36136 9.2725512,10.311449 9.1690684,10.211445 9.1171598,10.151164 8.992995,10.006973 8.8815825,9.8286233 8.7473231,9.5591288 8.6352512,9.3341699 8.5537411,9.1358117 8.4616032,8.8638163 8.3714528,8.5976895 8.3341774,8.5137924 8.2714368,8.4358014 8.2214129,8.373618 8.161586,8.3409049 8.0725621,8.3270581 7.9508664,8.3081293 7.8535743,8.3189109 7.7682598,8.3607799 7.7322266,8.3784635 7.7226957,8.3854462 7.689802,8.418261 7.6566071,8.4513764 7.6498946,8.4605453 7.6306235,8.4990951 7.6089411,8.542468 7.6045004,8.5554098 7.4927434,8.9009257 7.3467821,9.3521905 7.2176817,9.6411386 7.0487461,9.8946642 6.8803914,10.147318 6.6551129,10.380736 6.4602654,10.504406 6.1783626,10.68333 5.7007757,10.801421 5.1491192,10.828608 c -0.091404,0.0045 -0.3253355,0.0043 -0.3984375,-4.11e-4 z M 11.01929,10.568098 c -0.0048,-9.27e-4 -0.01359,-9.51e-4 -0.01953,-5.3e-5 -0.0059,8.98e-4 -0.002,0.0017 0.0087,0.0017 0.01074,3.1e-5 0.0156,-7.06e-4 0.0108,-0.0016 z m -0.650526,-0.0543 c -0.0013,-0.0013 -0.0047,-0.0014 -0.0075,-3.08e-4 -0.0031,0.0012 -0.0022,0.0022 0.0024,0.0024 0.0041,1.69e-4 0.0064,-7.54e-4 0.0051,-0.0021 z m -0.02734,-0.0039 c -0.0013,-0.0013 -0.0047,-0.0014 -0.0075,-3.08e-4 -0.0031,0.0012 -0.0022,0.0022 0.0024,0.0024 0.0041,1.69e-4 0.0064,-7.54e-4 0.0051,-0.0021 z m -0.03215,-0.0063 c -0.06086,-0.01187 -0.21601,-0.04265 -0.222656,-0.04417 -0.0043,-9.86e-4 -0.0019,9.2e-4 0.0054,0.0042 0.01983,0.0091 0.19951,0.04407 0.225097,0.04385 0.0079,-6.8e-5 0.0054,-0.0013 -0.0078,-0.0039 z M 3.2501293,7.8635783 c 0.02763,-0.00242 0.058462,-0.0079 0.076407,-0.013567 0.052981,-0.016737 0.05929,-0.036106 0.017928,-0.055041 -0.039366,-0.018023 -0.073891,-0.022541 -0.1738612,-0.022754 -0.074627,-1.593e-4 -0.098007,0.00114 -0.125,0.00693 -0.094127,0.020188 -0.1032125,0.053778 -0.020291,0.075022 0.050507,0.012939 0.1413019,0.016742 0.2248168,0.00942 z m 9.6978177,-0.00377 c 0.03731,-0.00611 0.06488,-0.015637 0.07872,-0.027189 0.01097,-0.00915 0.01174,-0.011141 0.0074,-0.019175 -0.0063,-0.011818 -0.039,-0.026437 -0.077,-0.034454 -0.04578,-0.00966 -0.201662,-0.00963 -0.247439,4.45e-5 -0.0563,0.011897 -0.08713,0.031891 -0.07628,0.049457 0.0075,0.012077 0.05587,0.028102 0.10595,0.035074 0.03269,0.00455 0.173361,0.00202 0.208606,-0.00376 z"
     id="path4712"
     inkscape:connector-curvature="0" /><path
     style="stroke-width:0.00390625"
     d="M 4.7487285,10.828557 C 4.310275,10.79779 4.0019782,10.709804 3.7942363,10.556151 3.7391338,10.515395 3.6383689,10.41302 3.594383,10.353103 3.4771931,10.19347 3.3812994,9.9742565 3.3077248,9.6978007 3.2876889,9.6225163 3.2589804,9.4978569 3.1880788,9.1782694 3.122471,8.8825436 3.1185366,8.8665856 3.0657692,8.6821757 3.0237647,8.5353794 3.010936,8.496312 2.9865103,8.4408062 2.9389509,8.332731 2.8844102,8.2711727 2.7900186,8.2190324 c -0.068025,-0.037576 -0.066617,-0.024373 -0.050995,-0.478263 0.00311,-0.090234 0.00668,-0.1716073 0.00794,-0.1808289 0.00315,-0.023015 0.020039,-0.041287 0.047749,-0.051655 0.039056,-0.014613 0.1454919,-0.038897 0.2137817,-0.048776 C 3.198353,7.432045 3.7693956,7.3585411 3.9323223,7.340596 4.2211207,7.3087873 4.4796126,7.2952823 4.881541,7.2910038 c 0.5414625,-0.00576 0.9746797,0.026449 1.484375,0.1103734 0.296811,0.048872 0.4615833,0.090796 0.9042969,0.2300866 0.393816,0.1239061 0.5596274,0.1547192 0.7673938,0.1426067 0.198216,-0.011556 0.2925656,-0.035116 0.7033094,-0.1756216 0.08916,-0.0305 0.1990234,-0.066599 0.2441406,-0.080221 0.5655672,-0.1707581 1.3653383,-0.2539608 2.1972653,-0.2285883 0.280676,0.00856 0.789191,0.035034 1.015625,0.052874 0.252734,0.019912 0.594748,0.063823 0.91211,0.1171035 0.111702,0.018753 0.130622,0.02574 0.144999,0.053543 0.01841,0.035601 0.03365,0.5264528 0.01878,0.6048486 -0.01056,0.055681 -0.01918,0.066747 -0.07393,0.09491 -0.01934,0.00995 -0.04596,0.027313 -0.05918,0.038593 -0.03759,0.032095 -0.08875,0.096272 -0.109757,0.1376955 -0.03261,0.06431 -0.09782,0.3047504 -0.194392,0.7167969 -0.09134,0.3897315 -0.139463,0.5671041 -0.201893,0.7441406 -0.149248,0.4232273 -0.304082,0.6377063 -0.557827,0.7727123 -0.169656,0.09027 -0.402788,0.150549 -0.681641,0.176257 -0.232177,0.02141 -0.620885,0.01791 -0.861328,-0.0077 C 9.9873321,10.733057 9.5868774,10.582457 9.2888836,10.32316 9.1473211,10.199981 9.0270024,10.053995 8.9167407,9.8716288 8.7509993,9.5975026 8.590209,9.24377 8.4695426,8.887809 8.3685547,8.5898985 8.3303387,8.5040885 8.2643536,8.4270791 8.2003953,8.3524349 8.1081578,8.3195209 7.9635723,8.3197478 7.8458539,8.3199326 7.7605938,8.3496073 7.6929489,8.4139381 7.6434414,8.4610204 7.6216996,8.5044802 7.5734137,8.6528788 7.5541895,8.7119608 7.5161563,8.8288554 7.4888957,8.9126444 7.3908,9.2141522 7.3197078,9.3951223 7.2211207,9.5942851 7.1154289,9.8078 6.9976535,9.9858366 6.8490133,10.156785 c -0.052363,0.06022 -0.1812461,0.188037 -0.2383029,0.236328 -0.1694397,0.143409 -0.3490418,0.232544 -0.6216448,0.308516 -0.2212524,0.06166 -0.4440074,0.09773 -0.7618214,0.123363 -0.066483,0.0054 -0.415825,0.008 -0.4785157,0.0036 z m 6.2666755,-0.260272 c -0.0026,-0.0011 -0.0079,-0.0011 -0.01172,-1.45e-4 -0.0038,9.91e-4 -0.0016,0.0019 0.0048,0.0019 0.0064,8e-5 0.0096,-7.31e-4 0.0069,-0.0018 z m -0.695386,-0.06252 c -0.0027,-0.0011 -0.0071,-0.0011 -0.0098,0 -0.0027,0.0011 -4.88e-4,0.002 0.0049,0.002 0.0054,0 0.0076,-8.87e-4 0.0049,-0.002 z m -0.108399,-0.02081 c -0.05156,-0.01037 -0.101207,-0.02059 -0.110321,-0.0227 -0.0091,-0.0021 -0.01572,-0.0025 -0.01468,-7.84e-4 0.0039,0.0063 0.179824,0.04222 0.207036,0.04231 0.0064,2.4e-5 -0.03047,-0.0084 -0.08203,-0.01882 z M 3.2931918,7.8580986 c 0.016935,-0.00304 0.040666,-0.01047 0.052734,-0.016508 0.019337,-0.00967 0.021943,-0.012369 0.021943,-0.022697 0,-0.010318 -0.00257,-0.012982 -0.021484,-0.022295 -0.038882,-0.01914 -0.077521,-0.024447 -0.1777344,-0.024408 -0.058407,2.35e-5 -0.098045,0.00179 -0.1132812,0.00506 -0.060998,0.01309 -0.091622,0.029587 -0.086264,0.04647 0.00514,0.016186 0.052589,0.033304 0.1111339,0.040091 0.040532,0.0047 0.1750635,0.00109 0.2129524,-0.00572 z m 9.6064342,0.00581 c 0.119254,-0.00823 0.171936,-0.042122 0.108057,-0.069514 -0.06694,-0.028705 -0.247206,-0.032438 -0.328366,-0.0068 -0.03211,0.010145 -0.04951,0.023333 -0.04712,0.03573 0.003,0.015518 0.05191,0.033036 0.112625,0.040324 0.03579,0.0043 0.09488,0.0044 0.154804,2.6e-4 z"
     id="path4714"
     inkscape:connector-curvature="0" /><path
     style="stroke-width:0.00390625"
     d="M 4.7448223,10.828526 C 4.3097502,10.797643 4.000846,10.70912 3.7942363,10.556115 3.7437904,10.518757 3.641967,10.416946 3.6023558,10.364258 3.4756454,10.195718 3.3745688,9.9616822 3.2976516,9.6587382 3.2861964,9.613621 3.244888,9.4334452 3.2058551,9.2583476 3.1238764,8.8905994 3.1197949,8.8737504 3.071013,8.7017069 3.0274168,8.5479526 3.0124383,8.501506 2.9893515,8.4484853 2.9391358,8.3331611 2.8900347,8.276429 2.7922948,8.2208034 c -0.047886,-0.027253 -0.052751,-0.034332 -0.059758,-0.086963 -0.00472,-0.035487 -0.00193,-0.1861276 0.00851,-0.4594777 0.00471,-0.1231259 0.00537,-0.1279617 0.019896,-0.1445036 0.014505,-0.01652 0.037322,-0.025269 0.1173328,-0.04499 0.080551,-0.019854 0.1725674,-0.033296 0.6536519,-0.095485 0.5886222,-0.076091 0.816234,-0.092722 1.3457031,-0.09833 0.515088,-0.00546 0.9206437,0.022113 1.3903321,0.09451 0.3696741,0.056981 0.5072519,0.09089 1.026457,0.2529931 0.3733199,0.1165556 0.5334523,0.1458832 0.7385031,0.1352533 0.1870191,-0.0097 0.2709969,-0.029745 0.6376766,-0.152244 C 8.959961,7.5248997 9.0092368,7.5092897 9.1078727,7.4830458 9.4611078,7.3890612 9.9044051,7.3251126 10.39326,7.2976202 c 0.23148,-0.013018 0.689759,-0.015135 0.919922,-0.00425 0.350203,0.016562 0.433932,0.020708 0.55664,0.027563 0.420184,0.023472 0.653453,0.047927 1.082032,0.1134363 0.267824,0.040937 0.286065,0.04565 0.302934,0.078271 0.01169,0.022612 0.02091,0.1760977 0.02391,0.3980509 0.0033,0.2431313 -0.0014,0.2632111 -0.06903,0.2969855 -0.0407,0.020322 -0.06654,0.039772 -0.100504,0.075652 -0.03525,0.037237 -0.06915,0.085726 -0.08495,0.1215029 -0.03199,0.07246 -0.09468,0.306427 -0.183676,0.6855469 -0.0996,0.4242881 -0.148091,0.6009177 -0.217711,0.7929688 -0.129462,0.3571295 -0.263513,0.5571945 -0.461831,0.6892625 -0.190253,0.126698 -0.456461,0.202145 -0.814613,0.230874 -0.105035,0.0084 -0.452577,0.01202 -0.576172,0.006 -0.378412,-0.01856 -0.71347,-0.08245 -0.9785157,-0.186583 C 9.6717797,10.575743 9.5512692,10.513566 9.4538067,10.448524 9.3575852,10.38431 9.2960977,10.334049 9.2100762,10.249296 9.0398286,10.081558 8.9163383,9.8976612 8.7492403,9.5630351 8.6340137,9.3322851 8.5612051,9.1551805 8.4577746,8.8540507 8.3679289,8.5924722 8.3293325,8.5061012 8.2711469,8.4364156 8.2172774,8.3718994 8.1593383,8.3409632 8.0651348,8.3264173 8.0156215,8.3187719 7.9164582,8.3188377 7.8728625,8.3265446 7.7641735,8.3457594 7.6763813,8.407607 7.6314289,8.4966287 7.615495,8.528184 7.5896403,8.6005644 7.5514395,8.7205612 7.4049981,9.1805631 7.3289657,9.3805234 7.213275,9.6099099 7.0790145,9.876116 6.9367672,10.074792 6.7391618,10.2721 c -0.1141143,0.113943 -0.1920245,0.178676 -0.2840493,0.236006 -0.2699208,0.168156 -0.6768271,0.273633 -1.222009,0.316765 -0.068855,0.0054 -0.4254244,0.0081 -0.4882812,0.0037 z m 6.2684737,-0.260038 c -0.0013,-0.0013 -0.0047,-0.0014 -0.0075,-3.09e-4 -0.0031,0.0012 -0.0022,0.0022 0.0024,0.0024 0.0041,1.7e-4 0.0064,-7.53e-4 0.0051,-0.0021 z m -0.71875,-0.06641 c -0.0013,-0.0013 -0.0047,-0.0014 -0.0075,-3.08e-4 -0.0031,0.0012 -0.0022,0.0022 0.0024,0.0024 0.0041,1.7e-4 0.0064,-7.54e-4 0.0051,-0.0021 z m -0.106364,-0.02135 c -0.05156,-0.01056 -0.09551,-0.0191 -0.09766,-0.01898 -0.01117,6.25e-4 0.02083,0.0086 0.08289,0.02076 0.08544,0.01669 0.08672,0.01691 0.09875,0.01719 0.0054,1.24e-4 -0.03242,-0.0084 -0.08398,-0.01897 z M 3.2912234,7.8575746 c 0.034004,-0.00591 0.067296,-0.018049 0.075006,-0.027339 0.012924,-0.015572 -0.00984,-0.03458 -0.056,-0.046765 -0.055501,-0.01465 -0.1951635,-0.016678 -0.2624148,-0.00381 -0.03644,0.00697 -0.070175,0.021688 -0.076405,0.03333 -0.011698,0.021857 0.034672,0.042337 0.1152105,0.050884 0.042214,0.00448 0.1642222,7.23e-4 0.2046033,-0.0063 z m 9.6645366,3.5e-6 c 0.04341,-0.00742 0.07572,-0.023039 0.07738,-0.037407 0.001,-0.00878 -0.0016,-0.01209 -0.01645,-0.020788 -0.03355,-0.019659 -0.08279,-0.02681 -0.18398,-0.026722 -0.06681,5.86e-5 -0.09752,0.00167 -0.119784,0.0063 -0.03478,0.00723 -0.06623,0.01989 -0.07587,0.030542 -0.01948,0.021528 0.02543,0.043598 0.110685,0.054386 0.03626,0.00459 0.167558,6.03e-4 0.208016,-0.00631 z"
     id="path4716"
     inkscape:connector-curvature="0" /><path
     style="stroke-width:0.00390625"
     d="M 4.7682598,10.830156 C 4.3084094,10.798141 4.0063152,10.713149 3.7942363,10.556119 3.7441419,10.519028 3.6381079,10.413047 3.6003892,10.36237 3.4900893,10.214174 3.3964153,10.009366 3.3250192,9.7603007 3.2953679,9.6568624 3.2801331,9.5925774 3.1958789,9.2153788 3.1222006,8.8855274 3.1145785,8.8544054 3.0657698,8.6841288 3.020867,8.5274789 3.0043163,8.4794287 2.9735614,8.4164278 2.9254691,8.317912 2.8805097,8.2705625 2.7825185,8.2152293 2.7315081,8.186425 2.7268308,8.166664 2.7307777,7.9966288 c 0.0036,-0.1548907 0.013496,-0.4208138 0.016329,-0.4386121 0.00273,-0.017164 0.016874,-0.035537 0.034279,-0.044538 0.015321,-0.00792 0.080081,-0.026053 0.1370681,-0.038374 0.062783,-0.013574 0.4376508,-0.064718 0.8146491,-0.1111443 0.4315335,-0.053142 0.6667269,-0.068101 1.1464844,-0.072919 0.5576552,-0.0056 0.9856322,0.026446 1.4998911,0.1123106 0.2819456,0.047076 0.432866,0.085148 0.8419058,0.212388 0.3171355,0.098651 0.4216598,0.1260054 0.5703125,0.1492538 0.063749,0.00997 0.2838012,0.00987 0.3554688,-1.543e-4 C 8.2884371,7.7450709 8.3675403,7.7230823 8.7116192,7.6079357 8.8555645,7.5597641 9.0049786,7.5114214 9.0436504,7.5005074 9.43317,7.3905767 9.9030371,7.3222947 10.469432,7.2933099 c 0.130372,-0.00667 0.551499,-0.00911 0.710937,-0.00411 0.43791,0.013718 0.972383,0.045311 1.232422,0.072848 0.201412,0.021329 0.625161,0.081674 0.755859,0.1076404 0.0659,0.013092 0.08843,0.029722 0.09344,0.068979 0.01686,0.1319714 0.02336,0.5492489 0.0093,0.5966373 -0.01211,0.040765 -0.02229,0.052704 -0.06171,0.072361 -0.05113,0.0255 -0.08898,0.05766 -0.130887,0.111233 -0.04387,0.056081 -0.05952,0.088706 -0.08741,0.1822622 -0.04319,0.1448546 -0.08348,0.3030073 -0.156974,0.6161096 -0.08121,0.3459624 -0.126523,0.5152829 -0.183081,0.68405 -0.138118,0.4121376 -0.282729,0.6369626 -0.501006,0.7789096 -0.19003,0.123577 -0.46592,0.198329 -0.833218,0.225759 -0.107761,0.008 -0.548647,0.0067 -0.652344,-0.0019 C 9.909595,10.740834 9.4461661,10.54116 9.0976551,10.128841 8.9820953,9.9921231 8.8650981,9.8000929 8.7327957,9.5299877 8.6242766,9.3084383 8.5555864,9.1398822 8.4591211,8.8584305 8.3558875,8.5572297 8.3155762,8.4743094 8.2371332,8.4018024 8.1719235,8.3415273 8.084261,8.3175769 7.9445594,8.3218678 c -0.052575,0.00161 -0.07221,0.00389 -0.1029094,0.011944 -0.097265,0.025505 -0.1692004,0.082619 -0.2120836,0.1683845 -0.010931,0.021863 -0.035799,0.09084 -0.064887,0.1799795 C 7.4239586,9.1134214 7.4104926,9.1525317 7.3515051,9.3013163 7.1870485,9.7161278 7.0006032,10.011776 6.7393149,10.272074 6.5856334,10.425172 6.4958704,10.492678 6.3444317,10.569042 6.0846095,10.700059 5.7134029,10.78674 5.256541,10.823078 c -0.07176,0.0057 -0.4327936,0.01094 -0.4882812,0.0071 z m 5.5028482,-0.331981 c -0.0013,-0.0013 -0.0047,-0.0014 -0.0075,-3.08e-4 -0.0031,0.0012 -0.0022,0.0022 0.0024,0.0024 0.0041,1.69e-4 0.0064,-7.54e-4 0.0051,-0.0021 z m -0.09435,-0.01942 c -0.04495,-0.0095 -0.08244,-0.01652 -0.08331,-0.01565 -0.0031,0.0031 0.136356,0.03257 0.155279,0.03277 0.0054,5.8e-5 -0.02702,-0.0076 -0.07197,-0.01712 z M 3.2769322,7.8594789 c 0.05011,-0.00634 0.09289,-0.02386 0.09289,-0.038041 0,-0.025853 -0.061876,-0.044736 -0.1621094,-0.049472 -0.1143492,-0.0054 -0.2213169,0.01302 -0.2361115,0.040664 -0.012227,0.022846 0.049183,0.047186 0.1325959,0.052555 0.032634,0.0021 0.1387359,-0.0014 0.1727349,-0.00571 z m 9.6612498,1.345e-4 c 0.03494,-0.00406 0.07334,-0.015732 0.08747,-0.026597 0.01386,-0.010655 0.0089,-0.024902 -0.01226,-0.035083 -0.02784,-0.013406 -0.06074,-0.020003 -0.122582,-0.02458 -0.137914,-0.010209 -0.268658,0.015666 -0.257458,0.050952 0.005,0.015682 0.06002,0.033907 0.119283,0.039491 0.03759,0.00354 0.138651,0.00126 0.185547,-0.00418 z"
     id="path4718"
     inkscape:connector-curvature="0" /><path
     style="stroke-width:0.00390625"
     d="M 4.7643535,10.829897 C 4.3140976,10.804237 3.9625635,10.699178 3.7613772,10.530151 3.7109841,10.487813 3.6337664,10.406793 3.5979896,10.358719 3.4930524,10.217713 3.4019092,10.021288 3.3320984,9.7856913 3.3032089,9.6881953 3.2783411,9.5853347 3.2154672,9.3032694 3.1206628,8.8779578 3.1168888,8.8625069 3.0567115,8.653315 3.0189547,8.5220628 3.0026787,8.4761532 2.9713885,8.4126444 2.9308339,8.3303323 2.8828624,8.27512 2.819041,8.2373017 2.807225,8.2303017 2.78728,8.2185477 2.77472,8.2111857 2.729191,8.1845007 2.725919,8.1624747 2.732516,7.9270764 2.738126,7.7268371 2.743766,7.5833984 2.74694,7.5601238 c 0.00438,-0.032114 0.02497,-0.047305 0.087726,-0.064724 0.088777,-0.024641 0.1470719,-0.034037 0.5,-0.080589 0.6348761,-0.083742 0.8353931,-0.1033249 1.2089844,-0.1180746 0.1641057,-0.00648 0.7174541,-0.00657 0.8417969,-1.37e-4 0.3289386,0.017016 0.5846057,0.042702 0.8841812,0.088831 0.3482882,0.05363 0.5146774,0.093906 0.9576157,0.2317997 0.3489097,0.1086208 0.4778875,0.140324 0.6230469,0.1531472 0.06735,0.00595 0.230671,0.0026 0.296875,-0.00608 C 8.2813032,7.7466982 8.3683102,7.7225292 8.7174786,7.605873 8.8582012,7.558858 9.0014629,7.5123402 9.0358379,7.5025001 9.3935961,7.4000896 9.8574703,7.3288536 10.358104,7.2994434 c 0.330727,-0.019429 0.682428,-0.018836 1.132812,0.00191 0.674635,0.031075 0.933748,0.053766 1.386719,0.1214394 0.333578,0.049836 0.356701,0.05524 0.375723,0.08781 0.01456,0.024933 0.02399,0.18798 0.02437,0.4215732 2.65e-4,0.1607853 -4.35e-4,0.1823352 -0.0067,0.2048572 -0.0038,0.013843 -0.0115,0.031132 -0.01705,0.038419 -0.01057,0.013855 -0.01288,0.015428 -0.06442,0.043747 -0.06695,0.036787 -0.13689,0.1191044 -0.171174,0.201459 -0.02893,0.069481 -0.100849,0.3425512 -0.187716,0.7126899 -0.07811,0.3328296 -0.120802,0.4921129 -0.177693,0.6629712 -0.118896,0.3570727 -0.245299,0.5770807 -0.411695,0.7165617 -0.198052,0.166017 -0.487156,0.258727 -0.912517,0.292629 -0.02793,0.0022 -0.144825,0.0051 -0.259766,0.0063 -0.223144,0.0024 -0.331419,-9.3e-4 -0.480469,-0.01475 C 9.9627868,10.73901 9.5250657,10.564511 9.2051871,10.245556 9.0388153,10.079664 8.9202618,9.9033358 8.7568028,9.5786601 8.635984,9.3386805 8.5683844,9.1749718 8.4559789,8.8501444 8.3552196,8.5589726 8.3190082,8.4834048 8.245334,8.4105581 8.1929246,8.3587371 8.1385614,8.3353712 8.0451344,8.3245097 7.9879696,8.3178639 7.8893129,8.3217998 7.8465547,8.3324319 7.7783493,8.3493918 7.7117606,8.3895228 7.6717864,8.43776 7.6281555,8.4904094 7.6152473,8.522707 7.5225844,8.8110819 7.3968985,9.2022263 7.3269301,9.3833151 7.2150782,9.6069548 7.0822957,9.8724435 6.9375368,10.07429 6.735309,10.275926 c -0.1694631,0.168967 -0.2942701,0.256402 -0.4766843,0.333948 -0.2768792,0.117705 -0.6914933,0.200011 -1.101693,0.218702 -0.07733,0.0035 -0.3385059,0.0044 -0.3925782,0.0013 z m 5.4833175,-0.335628 c -0.0013,-0.0013 -0.0047,-0.0014 -0.0075,-3.08e-4 -0.0031,0.0012 -0.0022,0.0022 0.0024,0.0024 0.0041,1.69e-4 0.0064,-7.54e-4 0.0051,-0.0021 z m -0.01489,-0.0031 c -0.0033,-0.0032 -0.125465,-0.02629 -0.127628,-0.02413 -0.0012,0.0012 -6.43e-4,0.0023 0.0013,0.0024 0.002,5.9e-5 0.02819,0.0052 0.05827,0.01148 0.05192,0.01079 0.07167,0.01378 0.06803,0.01029 z M 3.3073223,7.8543559 c 0.081119,-0.02069 0.081384,-0.049529 6.473e-4,-0.07045 -0.060666,-0.01572 -0.2155352,-0.015781 -0.2760379,-1.082e-4 -0.074791,0.019374 -0.080759,0.047192 -0.014333,0.066798 0.03863,0.011402 0.056996,0.012712 0.1608169,0.011472 0.080385,-9.598e-4 0.1091893,-0.00268 0.1289063,-0.00771 z m 9.6640627,-5.39e-5 c 0.09328,-0.023595 0.07787,-0.059081 -0.03329,-0.076633 -0.01765,-0.00279 -0.06506,-0.00488 -0.10929,-0.00483 -0.08619,1.031e-4 -0.133068,0.00636 -0.16861,0.022487 -0.04932,0.022386 -0.03001,0.045681 0.05194,0.062647 0.03878,0.00803 0.223321,0.00541 0.259247,-0.00367 z"
     id="path4720"
     inkscape:connector-curvature="0" /><path
     style="stroke-width:0.00390625"
     d="M 4.7350567,10.828223 C 4.3402042,10.800995 4.0302931,10.716732 3.8302189,10.582203 3.7796909,10.548228 3.7335792,10.50834 3.6764629,10.449199 3.5917419,10.361475 3.5390575,10.283794 3.4715205,10.147019 3.4256717,10.054167 3.3982914,9.987986 3.364225,9.8876752 3.3177855,9.7509313 3.2942564,9.657761 3.2038153,9.2524882 3.1286441,8.915641 3.1137198,8.8539798 3.0709776,8.7036601 3.0285015,8.5542757 3.0089342,8.4947048 2.9839995,8.4388623 2.9347802,8.3286337 2.8835405,8.2726913 2.7758187,8.2115753 2.727748,8.1843024 2.7242391,8.1580069 2.7330618,7.8911601 c 0.00756,-0.2286583 0.012532,-0.3335515 0.016278,-0.343442 0.00973,-0.02568 0.030844,-0.038029 0.093574,-0.05472 0.086354,-0.022977 0.1454767,-0.032508 0.4624557,-0.074545 0.7121558,-0.094446 0.9265114,-0.1140365 1.3671875,-0.124953 0.6008134,-0.014883 1.0727474,0.011538 1.5742187,0.088134 0.3658812,0.055886 0.5206227,0.093066 0.9824219,0.2360491 0.4456426,0.1379807 0.5569,0.1603404 0.7714844,0.155047 0.126057,-0.00311 0.1871679,-0.01061 0.2940996,-0.036096 C 8.3816066,7.7159402 8.415941,7.7052972 8.703807,7.6098421 8.9794667,7.5184341 9.0506039,7.4964648 9.1581074,7.4695382 9.5248792,7.3776722 9.9406046,7.3213932 10.459666,7.293339 c 0.123498,-0.00667 0.574242,-0.00921 0.732422,-0.00411 0.429751,0.013836 0.948324,0.044327 1.205078,0.070855 0.200364,0.020702 0.629906,0.081376 0.761719,0.1075945 0.07502,0.014922 0.0975,0.029953 0.10301,0.068889 0.01758,0.1241339 0.02378,0.5499735 0.0088,0.6024903 -0.0076,0.026447 -0.0217,0.047106 -0.03859,0.056342 -0.0063,0.00347 -0.02673,0.015099 -0.0453,0.025841 -0.05706,0.033005 -0.120984,0.103266 -0.154986,0.1703451 -0.03299,0.06508 -0.09477,0.2912162 -0.189322,0.6929361 -0.09592,0.4075651 -0.133595,0.548255 -0.195989,0.7319638 -0.117409,0.3456922 -0.241837,0.5594802 -0.405452,0.6966342 -0.18593,0.15586 -0.465885,0.251163 -0.840643,0.286172 -0.20125,0.0188 -0.586321,0.01873 -0.792294,-1.35e-4 C 10.234272,10.764906 9.9307082,10.691895 9.6823223,10.576493 9.4994071,10.491508 9.3442168,10.383932 9.2055528,10.246001 9.0328703,10.074231 8.9044496,9.8798074 8.7332973,9.5310238 8.6222723,9.3047703 8.5533696,9.1357292 8.4557653,8.8501443 8.3752578,8.6145837 8.336318,8.5246762 8.2846075,8.4549637 8.2166161,8.3633028 8.1386149,8.3272588 7.9967754,8.3219583 7.8702219,8.317229 7.7864985,8.339719 7.7128836,8.3982179 7.6513239,8.4471373 7.6259121,8.4955487 7.5669059,8.6763162 7.4618973,8.9980128 7.4352547,9.0780525 7.4089231,9.1509256 7.2247172,9.6607144 7.0160676,10.004944 6.7127961,10.299395 6.5596337,10.448102 6.4309624,10.536032 6.2582132,10.610042 5.9860321,10.72665 5.5700927,10.809427 5.1600046,10.828598 c -0.095737,0.0045 -0.3579562,0.0042 -0.4249479,-3.75e-4 z m 5.4951173,-0.338087 c -0.0027,-0.0011 -0.0071,-0.0011 -0.0098,0 -0.0027,0.0011 -4.88e-4,0.002 0.0049,0.002 0.0054,0 0.0076,-8.87e-4 0.0049,-0.002 z m -0.01693,-0.0029 c -0.0033,-0.0032 -0.105925,-0.0224 -0.108092,-0.02023 -0.0012,0.0012 2.3e-4,0.0024 0.0033,0.0025 0.003,1.25e-4 0.02487,0.0044 0.0485,0.0094 0.04158,0.0089 0.0597,0.01157 0.05632,0.0083 z M 3.2670216,7.8599013 c 0.063693,-0.00671 0.1110496,-0.028413 0.1005191,-0.046065 -0.00698,-0.011701 -0.045451,-0.027757 -0.081703,-0.0341 -0.042013,-0.00735 -0.1806976,-0.0086 -0.2226562,-0.002 -0.033329,0.00524 -0.062095,0.014131 -0.079317,0.024513 -0.030014,0.018094 -3.155e-4,0.043875 0.063692,0.055292 0.036974,0.00659 0.166094,0.00798 0.2194651,0.00236 z m 9.7024104,-0.00549 c 0.02927,-0.0069 0.05527,-0.019662 0.06196,-0.030402 0.0095,-0.015271 -0.02577,-0.034347 -0.0815,-0.044066 -0.04455,-0.00777 -0.190375,-0.00801 -0.232412,-3.789e-4 -0.04006,0.00727 -0.07312,0.020353 -0.08072,0.031948 -0.0058,0.00879 -0.0057,0.010114 4.03e-4,0.01689 0.0098,0.01087 0.04056,0.022909 0.07515,0.029453 0.04315,0.00816 0.217833,0.00582 0.257118,-0.00344 z"
     id="path4722"
     inkscape:connector-curvature="0" /><path
     style="stroke-width:0.00390625"
     d="M 4.7584942,10.829907 C 4.3015873,10.800646 3.9631775,10.699162 3.7624004,10.531192 3.7132708,10.49009 3.6311056,10.403956 3.5969563,10.357756 3.5098048,10.239851 3.4284808,10.076199 3.3659783,9.8929487 3.3156734,9.7454604 3.2995609,9.6814318 3.1942846,9.2106648 3.125173,8.9016165 3.112853,8.8511474 3.0692877,8.6986111 3.027374,8.5518574 3.0087683,8.4949971 2.9854584,8.4424235 2.9348921,8.3283751 2.8882213,8.2771435 2.7747197,8.2110908 2.7370545,8.1891713 2.7292661,8.1631464 2.7292427,8.0591288 2.7292151,7.936742 2.7438944,7.5620925 2.7492737,7.5478914 2.7597276,7.5202935 2.7811493,7.508815 2.8593574,7.4889048 2.9377411,7.4689498 2.9979246,7.4592474 3.2584942,7.4245583 4.0196377,7.3232288 4.2193729,7.3048132 4.6842754,7.2931008 c 0.1938559,-0.00488 0.5876476,-0.00258 0.7167969,0.00419 0.3528492,0.018497 0.6495036,0.05048 0.9809973,0.1057614 0.2788648,0.046505 0.428657,0.084642 0.8686121,0.2211492 0.2925992,0.090786 0.4164953,0.1223034 0.5605469,0.1425943 0.055092,0.00776 0.2597019,0.00651 0.3279863,-0.002 0.1346109,-0.016779 0.2141324,-0.038691 0.5763105,-0.1588028 0.1482422,-0.049163 0.2982864,-0.097499 0.3334317,-0.1074134 0.3090937,-0.087198 0.6822136,-0.1495169 1.1099279,-0.18538 0.393208,-0.03297 0.803133,-0.036591 1.339844,-0.011835 0.648544,0.029914 0.899665,0.051391 1.328125,0.1135835 0.269758,0.039157 0.379884,0.059065 0.403712,0.072981 0.01698,0.00991 0.02872,0.028808 0.03154,0.050735 0.01092,0.085022 0.01913,0.3079848 0.01693,0.4599185 -0.0024,0.1646191 -0.0056,0.1738012 -0.07518,0.2128907 -0.04901,0.027543 -0.08225,0.055653 -0.117809,0.099609 -0.03594,0.044432 -0.0567,0.080668 -0.07416,0.1294673 -0.03445,0.096248 -0.09604,0.3337862 -0.196353,0.7572515 -0.09168,0.3869905 -0.146867,0.5753685 -0.229218,0.7823507 -0.136734,0.3436663 -0.286918,0.5297873 -0.525532,0.6512863 -0.20011,0.101895 -0.478521,0.163085 -0.808149,0.177618 -0.113376,0.005 -0.402013,0.005 -0.5,2.7e-5 -0.146041,-0.0074 -0.301804,-0.02408 -0.4375,-0.04677 C 9.747711,10.667452 9.3628164,10.461158 9.0697766,10.094833 8.9720547,9.9726723 8.8818649,9.8249379 8.767775,9.6001439 8.6419434,9.3522147 8.5672,9.1734378 8.4616946,8.8680367 8.3696547,8.6016144 8.3360856,8.523562 8.2835618,8.4538577 8.2302325,8.3830845 8.1736528,8.34827 8.0822145,8.329965 8.0347461,8.3204624 7.9006371,8.3204215 7.8591094,8.329897 7.7904844,8.3455554 7.7292106,8.3786858 7.6852043,8.4239265 7.637468,8.4730021 7.6232575,8.5052127 7.5496586,8.7311649 7.3906258,9.2194053 7.3321121,9.3728419 7.2175246,9.6020971 7.0891996,9.8588368 6.948411,10.059252 6.7624004,10.249974 6.6135454,10.4026 6.4971401,10.492172 6.3519419,10.565815 c -0.1640248,0.08319 -0.3571562,0.144688 -0.6090727,0.193938 -0.1752744,0.03427 -0.3919866,0.05998 -0.5800782,0.06882 -0.075509,0.0036 -0.3552724,0.0045 -0.4042968,0.0013 z m 5.4521488,-0.343678 c -0.0027,-0.0011 -0.0071,-0.0011 -0.0098,0 -0.0027,0.0011 -4.88e-4,0.002 0.0049,0.002 0.0054,0 0.0076,-8.87e-4 0.0049,-0.002 z m -0.03418,-0.0073 c -0.01074,-0.0028 -0.02393,-0.005 -0.0293,-0.005 -0.0054,3.5e-5 -9.8e-5,0.0023 0.01172,0.005 0.02804,0.0065 0.04293,0.0064 0.01758,-8.9e-5 z m -0.04395,-0.0084 c -0.0027,-0.0011 -0.0071,-0.0011 -0.0098,0 -0.0027,0.0011 -4.88e-4,0.002 0.0049,0.002 0.0054,0 0.0076,-8.87e-4 0.0049,-0.002 z M 3.3039785,7.8545551 c 0.027856,-0.00621 0.053467,-0.017642 0.061684,-0.027543 0.012083,-0.014559 -0.017129,-0.033469 -0.071637,-0.046374 -0.012993,-0.00308 -0.056534,-0.0047 -0.125375,-0.00468 -0.088223,2.35e-5 -0.10994,0.00117 -0.1328125,0.00699 -0.06454,0.016416 -0.081068,0.036811 -0.045718,0.056413 0.013292,0.00737 0.05237,0.018076 0.080874,0.022156 0.028138,0.00403 0.2077585,-0.00133 0.2329843,-0.00695 z m 9.6640625,-4.85e-5 c 0.04407,-0.00974 0.07159,-0.027491 0.06329,-0.040823 -0.0068,-0.01088 -0.03296,-0.023523 -0.06385,-0.030829 -0.02434,-0.00576 -0.04748,-0.00693 -0.136719,-0.00693 -0.100622,0 -0.109395,5.712e-4 -0.138588,0.00902 -0.05325,0.015415 -0.06971,0.030447 -0.05098,0.046559 0.01095,0.00942 0.05266,0.023425 0.08533,0.028655 0.0325,0.0052 0.211325,0.00102 0.241519,-0.00565 z"
     id="path4724"
     inkscape:connector-curvature="0" /><path
     style="stroke-width:0.00390625"
     d="M 4.7089734,10.826797 C 4.3186652,10.794885 4.0325397,10.715983 3.837228,10.586407 3.7777866,10.546971 3.7374286,10.512508 3.6744601,10.447415 3.5955801,10.365873 3.5418475,10.2873 3.4770462,10.158738 3.4305932,10.066578 3.4055194,10.006815 3.3693005,9.9019277 3.318405,9.7545377 3.296603,9.6689563 3.1998742,9.2368632 3.1265638,8.9093812 3.1130026,8.8534647 3.0710321,8.7056132 3.0166789,8.5141404 2.9908508,8.4433706 2.9498545,8.3735819 2.9150725,8.3143721 2.8652784,8.264726 2.8065081,8.2306615 2.7579728,8.2025294 2.7523244,8.1982297 2.7447166,8.183624 2.7283664,8.152234 2.7260413,8.0914911 2.7330732,7.8794413 2.7401281,7.666697 2.7454529,7.557979 2.7493175,7.5477762 2.7597257,7.5202978 2.7812053,7.5088111 2.8595644,7.4888193 2.94609,7.466744 3.0033783,7.457825 3.3600567,7.4108997 4.1051468,7.312874 4.3183413,7.295999 4.8756817,7.2909332 c 0.512753,-0.00466 0.8720413,0.017922 1.3203125,0.082985 0.3861282,0.056044 0.5484312,0.094101 1.0175781,0.2386024 0.2382164,0.073373 0.3028465,0.092046 0.4038242,0.1166729 0.1475289,0.03598 0.2514242,0.047411 0.3910977,0.04303 C 8.2176032,7.7656635 8.2743387,7.7521505 8.7389629,7.59823 9.0063977,7.509635 9.05092,7.4960954 9.1804098,7.4639839 9.5691582,7.3675799 10.062582,7.3060543 10.582287,7.289182 c 0.1734,-0.00563 0.609485,-0.00235 0.789488,0.00594 0.560466,0.025806 0.827448,0.043096 1.064454,0.068933 0.156509,0.017062 0.437568,0.055936 0.620989,0.08589 0.155435,0.025384 0.179996,0.033015 0.196341,0.061002 0.01384,0.023696 0.02198,0.1489829 0.02523,0.3880805 0.0035,0.2587253 5.4e-4,0.2714787 -0.07255,0.3113817 -0.0692,0.037777 -0.129691,0.099425 -0.170031,0.1732769 -0.03488,0.063847 -0.09261,0.2751269 -0.205376,0.7516145 -0.07918,0.3345744 -0.117597,0.4786946 -0.17055,0.6398687 -0.09612,0.2925667 -0.188528,0.4802937 -0.308022,0.6257567 -0.178763,0.21761 -0.464448,0.343126 -0.892591,0.39216 -0.141846,0.01624 -0.18484,0.01793 -0.457031,0.01792 -0.278094,-1.2e-5 -0.313774,-0.0016 -0.494141,-0.02168 C 9.9245188,10.724257 9.5097317,10.550697 9.2019133,10.242614 9.0328,10.073356 8.9101301,9.8883345 8.741477,9.5481427 8.6300364,9.3233544 8.5645934,9.1645199 8.4635442,8.8735819 8.3519993,8.5524234 8.3192012,8.4834499 8.2420864,8.4078634 8.192052,8.3588204 8.1295137,8.3338493 8.0333364,8.3245111 7.8780836,8.3094369 7.7637121,8.3431219 7.6835246,8.4275383 7.6334,8.4803063 7.6201133,8.5122418 7.5206993,8.8188944 7.4035114,9.1803742 7.3441168,9.337996 7.2506946,9.535439 7.1145758,9.8231182 6.9636797,10.043668 6.7604473,10.251985 c -0.1185055,0.12147 -0.2198329,0.205423 -0.3222656,0.267009 -0.2645957,0.159083 -0.6565846,0.260594 -1.174698,0.304204 -0.1012179,0.0085 -0.4654171,0.01088 -0.5545103,0.0036 z M 10.189077,10.48255 c -0.0013,-0.0013 -0.0047,-0.0014 -0.0075,-3.08e-4 -0.0031,0.0012 -0.0022,0.0022 0.0024,0.0024 0.0041,1.69e-4 0.0064,-7.54e-4 0.0051,-0.0021 z m -0.0175,-0.0041 c -0.0027,-0.0011 -0.0071,-0.0011 -0.0098,0 -0.0027,0.0011 -4.88e-4,0.002 0.0049,0.002 0.0054,0 0.0076,-8.87e-4 0.0049,-0.002 z m -0.01766,-0.0037 c -0.0013,-0.0013 -0.0047,-0.0014 -0.0075,-3.09e-4 -0.0031,0.0012 -0.0022,0.0022 0.0024,0.0024 0.0041,1.7e-4 0.0064,-7.53e-4 0.0051,-0.0021 z M 3.3003953,7.8542939 c 0.03397,-0.00731 0.059806,-0.018863 0.065345,-0.029212 0.010192,-0.019044 -0.035873,-0.040388 -0.1030162,-0.047733 -0.055194,-0.00604 -0.1920956,-0.00248 -0.2268865,0.0059 -0.029409,0.00708 -0.05531,0.019861 -0.061995,0.030589 -0.00982,0.015756 0.030895,0.037049 0.088616,0.046345 0.031593,0.00509 0.2071277,7.451e-4 0.2379363,-0.00589 z M 12.96532,7.8541013 c 0.03093,-0.00664 0.06032,-0.020165 0.06639,-0.030561 0.01,-0.017076 -0.03849,-0.038375 -0.10486,-0.046083 -0.05211,-0.00605 -0.194865,-0.00235 -0.227816,0.00591 -0.03134,0.00785 -0.05887,0.020867 -0.06386,0.030184 -0.0088,0.016432 0.03525,0.038394 0.09373,0.046736 0.03498,0.00499 0.205087,5.397e-4 0.236417,-0.00618 z"
     id="path4726"
     inkscape:connector-curvature="0" /><path
     style="stroke-width:0.00390625"
     d="M 4.7291973,10.828284 C 4.2828767,10.796819 3.9437733,10.69085 3.7526348,10.523112 3.6338507,10.41887 3.554834,10.314263 3.4759232,10.156785 3.4302563,10.06565 3.4014783,9.996744 3.3674344,9.8970194 3.3179513,9.7520683 3.2951017,9.6623862 3.2037156,9.2544413 3.1284147,8.9183004 3.1100927,8.8431477 3.0656276,8.6880351 3.0215426,8.5342485 3.0043304,8.4838298 2.975261,8.4233291 2.9263111,8.3214524 2.8820014,8.2749045 2.7724698,8.2102946 2.7365533,8.1891084 2.7292651,8.1626337 2.7292427,8.0532694 2.7292126,7.906512 2.7436207,7.5616682 2.7504517,7.5456536 2.7622631,7.517963 2.7841774,7.507249 2.8737285,7.4853829 2.9496021,7.4668565 3.0029692,7.4583854 3.256541,7.4246177 4.009306,7.3243734 4.2192898,7.3047121 4.6569317,7.2934954 c 0.6198561,-0.015887 1.0966477,0.011253 1.6171875,0.092054 0.3454555,0.053623 0.487223,0.087764 0.9316406,0.2243616 0.3513437,0.1079899 0.4611008,0.1364886 0.5957031,0.1546763 0.069145,0.00934 0.2568297,0.00921 0.3358692,-2.43e-4 C 8.2741133,7.7479907 8.345745,7.7282008 8.7389629,7.5981288 9.0087825,7.5088756 9.0524848,7.4955991 9.181834,7.4635869 9.56937,7.367677 10.05677,7.3066166 10.573464,7.2892467 c 0.151628,-0.0051 0.619318,-0.00263 0.761202,0.00402 0.77502,0.036305 0.97228,0.051048 1.339844,0.1001352 0.133335,0.017807 0.378373,0.054562 0.453898,0.068084 0.101329,0.018142 0.122964,0.029051 0.131678,0.066395 0.01126,0.048277 0.02134,0.296877 0.019,0.46875 -0.0015,0.1125835 -0.0024,0.1252145 -0.01005,0.1485375 -0.0097,0.029471 -0.0226,0.043587 -0.05742,0.06271 -0.09069,0.049802 -0.158763,0.1270792 -0.195265,0.2216596 -0.03049,0.078998 -0.09383,0.3194331 -0.179756,0.6823269 -0.102025,0.4308868 -0.151764,0.6081493 -0.227435,0.8105469 -0.142823,0.3820062 -0.298252,0.5824362 -0.550697,0.7101362 -0.169673,0.08583 -0.382189,0.140061 -0.653487,0.16676 -0.09655,0.0095 -0.219546,0.01363 -0.40625,0.01362 -0.180481,-2e-6 -0.284628,-0.0036 -0.394532,-0.01369 C 9.8531368,10.730395 9.3761071,10.503292 9.0372848,10.053269 8.9456989,9.931625 8.8551762,9.777094 8.7419356,9.5490786 8.6299645,9.3236196 8.5605629,9.1546104 8.4557293,8.8520976 8.3554532,8.5627362 8.3162879,8.4808355 8.2446657,8.4107281 8.1868614,8.354146 8.1165172,8.3285244 8.0026348,8.3225724 7.8682797,8.3155504 7.7703817,8.3449681 7.6965282,8.4145555 7.6358942,8.4716869 7.6275598,8.4909037 7.5202223,8.8210714 7.3946368,9.2073708 7.3285172,9.3789367 7.2229879,9.5923319 7.1199262,9.8007375 7.0055555,9.9754292 6.8636703,10.14116 c -0.049632,0.05797 -0.1945406,0.203152 -0.2493485,0.249813 -0.1686488,0.143579 -0.3514477,0.234934 -0.6214584,0.310578 -0.2360201,0.06612 -0.5455843,0.113734 -0.8261661,0.127069 -0.093735,0.0045 -0.3725804,0.0042 -0.4375,-3.36e-4 z M 3.2370098,7.8599934 c 0.085926,-0.00508 0.1308087,-0.019848 0.1281527,-0.042171 -8.91e-4,-0.00749 -0.00572,-0.012374 -0.018778,-0.018991 -0.031694,-0.016063 -0.067017,-0.021728 -0.1484375,-0.023807 -0.1122395,-0.00287 -0.1793917,0.0059 -0.2116215,0.027616 -0.016636,0.011211 -0.0165,0.021388 4.386e-4,0.032803 0.037625,0.025355 0.1124295,0.032694 0.2502457,0.02455 z m 9.6640622,0 c 0.06726,-0.00397 0.105,-0.012997 0.122604,-0.029312 0.0089,-0.00828 0.0099,-0.011001 0.0061,-0.017974 -0.0053,-0.00999 -0.02859,-0.020666 -0.06465,-0.029694 -0.03911,-0.00979 -0.22541,-0.00988 -0.264308,-1.313e-4 -0.03905,0.00979 -0.0654,0.024145 -0.0654,0.035629 0,0.011318 0.01085,0.018861 0.04245,0.029506 0.04502,0.015168 0.110087,0.01866 0.223174,0.011977 z"
     id="path4728"
     inkscape:connector-curvature="0" /><path
     style="stroke-width:0.00390625"
     d="M 4.725291,10.828264 C 4.3668608,10.802842 4.0652078,10.725528 3.8737285,10.610008 3.8022905,10.566909 3.7615894,10.534085 3.6901348,10.461949 3.5969515,10.367877 3.5472627,10.297732 3.4794989,10.164598 3.4326028,10.072462 3.3988736,9.9903894 3.3599005,9.8735819 3.31116,9.7275006 3.3005614,9.6854365 3.2014395,9.2446757 3.1263916,8.9109634 3.1105151,8.8458538 3.0671355,8.6938944 3.025249,8.547165 3.0036259,8.4830463 2.97739,8.4277725 2.9297186,8.3273385 2.8831439,8.2761132 2.7892558,8.2208524 c -0.019604,-0.011539 -0.038617,-0.025516 -0.04225,-0.03106 -0.021816,-0.033295 -0.022877,-0.1289909 -0.00591,-0.533007 0.0051,-0.1214051 0.00653,-0.126081 0.04407,-0.1443582 0.060835,-0.029615 0.1825145,-0.050653 0.631534,-0.1091888 0.7055887,-0.091984 0.9083313,-0.1075692 1.4609375,-0.1123083 0.4849717,-0.00416 0.8145062,0.014498 1.2226562,0.069222 0.4282545,0.05742 0.6321973,0.103373 1.0996094,0.2477697 0.4875194,0.1506086 0.5937296,0.171035 0.8417944,0.161894 C 8.224936,7.7630635 8.2847575,7.7481296 8.7682598,7.5884356 9.0433477,7.4975781 9.09015,7.4838156 9.2448223,7.4483011 9.59155,7.3686885 9.9633879,7.3208555 10.4499,7.2932806 c 0.117273,-0.00665 0.589264,-0.00919 0.753907,-0.00407 0.414298,0.0129 0.946572,0.044388 1.199218,0.070943 0.26826,0.028196 0.742924,0.09839 0.807974,0.1194838 0.02726,0.00884 0.04389,0.024899 0.04903,0.047339 0.01158,0.050613 0.02141,0.2917994 0.01907,0.4676942 -0.0015,0.114637 -0.0024,0.1271133 -0.01004,0.1504906 -0.0097,0.029502 -0.02267,0.043657 -0.05743,0.062637 -0.03962,0.021632 -0.06895,0.044251 -0.101829,0.078528 -0.04501,0.046915 -0.07272,0.089811 -0.09548,0.147797 -0.02575,0.065592 -0.09055,0.3123871 -0.17385,0.6621094 -0.0915,0.3841267 -0.132909,0.5398242 -0.185463,0.6972656 -0.104549,0.3132088 -0.212431,0.5173838 -0.347515,0.6577018 -0.184976,0.192144 -0.469177,0.30351 -0.882971,0.346 -0.111869,0.01149 -0.226386,0.01575 -0.424232,0.01579 -0.240289,5.1e-5 -0.351738,-0.006 -0.540612,-0.02952 C 9.8976239,10.713583 9.5001453,10.542423 9.1998762,10.240991 9.0334664,10.073936 8.9147219,9.895355 8.7477813,9.5610819 8.6329539,9.3311567 8.5673133,9.1722944 8.459677,8.8638163 8.4323149,8.7853983 8.3998317,8.694871 8.3874926,8.6626444 8.3066012,8.451379 8.2338391,8.3667493 8.1070328,8.3364421 8.0419125,8.320878 7.9401719,8.317677 7.8717754,8.3290403 7.7810016,8.3441214 7.6941711,8.3993234 7.6492114,8.4705346 7.6276875,8.5046254 7.601452,8.573384 7.5513168,8.7270976 7.3912895,9.2177381 7.3361813,9.3631962 7.2249938,9.5884257 7.0870516,9.8678522 6.9301457,10.086755 6.7208977,10.291702 6.5465948,10.462422 6.4171984,10.548246 6.2116192,10.629488 5.9472962,10.733944 5.5520724,10.809667 5.1725567,10.828568 5.081543,10.8331 4.79069,10.832903 4.725291,10.828264 Z M 3.2968983,7.854017 c 0.040619,-0.00704 0.067065,-0.02006 0.067065,-0.033014 0,-0.011922 -0.018755,-0.025365 -0.04663,-0.033423 C 3.2729153,7.77474 3.1535055,7.769976 3.0768535,7.77799 3.0110905,7.78486 2.9652297,7.805958 2.9752702,7.824719 c 0.00807,0.015079 0.04551,0.029199 0.093771,0.035363 0.035269,0.0045 0.1907708,3.688e-4 0.2278573,-0.00606 z M 12.9499,7.855737 C 13.00231,7.848577 13.03874,7.829398 13.0302,7.813452 13.01873,7.79202 12.96256,7.778705 12.869819,7.775432 12.732913,7.770602 12.635444,7.789705 12.635444,7.82137 c 0,0.013537 0.04993,0.032956 0.09961,0.038742 0.03272,0.00381 0.176306,8.859e-4 0.214843,-0.00438 z"
     id="path4730"
     inkscape:connector-curvature="0" /></svg>